<svg xmlns="http://www.w3.org/2000/svg" viewBox="0 0 644.23 480.57"><defs><style>.cls-1{fill:#b39449;}</style></defs><g id="Logo"><path class="cls-1" d="M205.23,721.33a9.43,9.43,0,1,1-.08,18.85h-7.54V721.33Zm-5.47,16.8h5.49a7.37,7.37,0,1,0-.08-14.73h-5.41Z" transform="translate(-177.88 -259.72)"/><path class="cls-1" d="M226.93,723.4v6.19h9.51v2.08h-9.51v6.46h11v2H224.78V721.33h12.79v2.07Z" transform="translate(-177.88 -259.72)"/><path class="cls-1" d="M256.66,734.17c-.41,0-.84.06-1.27.06h-5v5.95h-2.15V721.33h7.16c4.71,0,7.43,2.31,7.43,6.33a5.9,5.9,0,0,1-4.22,6.11l4.41,6.41h-2.45Zm-1.27-2c3.42,0,5.36-1.51,5.36-4.44s-1.94-4.31-5.36-4.31h-5v8.75Z" transform="translate(-177.88 -259.72)"/><path class="cls-1" d="M290.69,740.18l0-15.54-6.87,13.55h-1.29l-6.84-13.55v15.54h-2.05V721.33h2.67l6.89,13.57,6.87-13.57h2.64v18.85Z" transform="translate(-177.88 -259.72)"/><path class="cls-1" d="M306,735.41l-2.1,4.77H301.6l8.45-18.85h2.24l8.43,18.85h-2.34l-2.1-4.77Zm5.12-11.63-4.21,9.56h8.46Z" transform="translate(-177.88 -259.72)"/><path class="cls-1" d="M333.59,723.4v16.78h-2.15V723.4H325.3v-2.07h14.46v2.07Z" transform="translate(-177.88 -259.72)"/><path class="cls-1" d="M365.55,730.75a9.88,9.88,0,1,1-9.85-9.48A9.63,9.63,0,0,1,365.55,730.75Zm-17.55,0a7.67,7.67,0,1,0,7.7-7.43A7.59,7.59,0,0,0,348,730.75Z" transform="translate(-177.88 -259.72)"/><path class="cls-1" d="M385.83,738.13v2H375.41V721.33h2.15v16.8Z" transform="translate(-177.88 -259.72)"/><path class="cls-1" d="M413.21,730.75a9.87,9.87,0,1,1-9.85-9.48A9.63,9.63,0,0,1,413.21,730.75Zm-17.55,0a7.68,7.68,0,1,0,7.7-7.43A7.6,7.6,0,0,0,395.66,730.75Z" transform="translate(-177.88 -259.72)"/><path class="cls-1" d="M437.66,731v6.84a11.63,11.63,0,0,1-7,2.47,9.51,9.51,0,1,1,.11-19,10.69,10.69,0,0,1,7,2.59l-1.24,1.61a8.69,8.69,0,0,0-5.71-2.18,7.48,7.48,0,1,0,0,15,9,9,0,0,0,4.95-1.59V731Z" transform="translate(-177.88 -259.72)"/><path class="cls-1" d="M448.81,740.18V721.33H451v18.85Z" transform="translate(-177.88 -259.72)"/><path class="cls-1" d="M464.24,735.41l-2.1,4.77h-2.29l8.46-18.85h2.23L479,740.18h-2.34l-2.1-4.77Zm5.12-11.63-4.2,9.56h8.45Z" transform="translate(-177.88 -259.72)"/><path class="cls-1" d="M508.24,721.33c4.66,0,7.35,2.31,7.35,6.33,0,4.17-2.69,6.57-7.35,6.57h-4.93v5.95h-2.15V721.33Zm-4.93,10.82h4.85c3.39,0,5.36-1.51,5.36-4.44s-2-4.31-5.36-4.31h-4.85Z" transform="translate(-177.88 -259.72)"/><path class="cls-1" d="M527.25,723.4v6.19h9.51v2.08h-9.51v6.46h11v2H525.1V721.33h12.79v2.07Z" transform="translate(-177.88 -259.72)"/><path class="cls-1" d="M557,734.17c-.41,0-.84.06-1.27.06h-5v5.95h-2.15V721.33h7.16c4.72,0,7.43,2.31,7.43,6.33a5.9,5.9,0,0,1-4.22,6.11l4.41,6.41h-2.45Zm-1.27-2c3.42,0,5.36-1.51,5.36-4.44s-1.94-4.31-5.36-4.31h-5v8.75Z" transform="translate(-177.88 -259.72)"/><path class="cls-1" d="M585.52,723l-.91,2a9.76,9.76,0,0,0-5.2-1.59c-2.43,0-4,.91-4,2.5,0,4.85,10.61,2.32,10.58,9.16,0,3.15-2.77,5.17-6.81,5.17a10.8,10.8,0,0,1-7.22-2.88l1-1.94a9.36,9.36,0,0,0,6.27,2.66c2.72,0,4.42-1.1,4.42-2.9,0-5-10.58-2.32-10.58-9.08,0-3,2.61-4.87,6.51-4.87A11.16,11.16,0,0,1,585.52,723Z" transform="translate(-177.88 -259.72)"/><path class="cls-1" d="M614.28,730.75a9.88,9.88,0,1,1-9.86-9.48A9.64,9.64,0,0,1,614.28,730.75Zm-17.56,0a7.68,7.68,0,1,0,7.7-7.43A7.6,7.6,0,0,0,596.72,730.75Z" transform="translate(-177.88 -259.72)"/><path class="cls-1" d="M637.6,740.18,626.29,725v15.14h-2.16V721.33h2.24l11.31,15.16V721.33h2.13v18.85Z" transform="translate(-177.88 -259.72)"/><path class="cls-1" d="M653.11,735.41l-2.1,4.77h-2.29l8.45-18.85h2.24l8.43,18.85H665.5l-2.1-4.77Zm5.12-11.63-4.2,9.56h8.45Z" transform="translate(-177.88 -259.72)"/><path class="cls-1" d="M687.14,738.13v2H676.72V721.33h2.16v16.8Z" transform="translate(-177.88 -259.72)"/><path class="cls-1" d="M696.57,740.18V721.33h2.15v18.85Z" transform="translate(-177.88 -259.72)"/><path class="cls-1" d="M711.49,738.13h12.63l0,2H708.66v-1.73l12.49-15.05H709v-2.07h15v1.72Z" transform="translate(-177.88 -259.72)"/><path class="cls-1" d="M735.69,735.41l-2.1,4.77H731.3l8.46-18.85H742l8.43,18.85h-2.34l-2.1-4.77Zm5.12-11.63-4.2,9.56h8.46Z" transform="translate(-177.88 -259.72)"/><path class="cls-1" d="M766.93,721.33a9.43,9.43,0,1,1-.08,18.85h-7.54V721.33Zm-5.47,16.8H767a7.37,7.37,0,1,0-.08-14.73h-5.42Z" transform="translate(-177.88 -259.72)"/><path class="cls-1" d="M787.66,735.41l-2.1,4.77h-2.29l8.46-18.85H794l8.43,18.85h-2.34l-2.1-4.77Zm5.12-11.63-4.2,9.56H797Z" transform="translate(-177.88 -259.72)"/><path class="cls-1" d="M177.88,667c0-16.82,12.73-29,28.53-29s29.88,9.66,27.72,31.59H183.57c1.13,13.18,11.25,20.8,22.84,20.8,7.38,0,16-3,20.22-8.53l4,3.18c-5.45,7.16-15.23,10.8-24.2,10.8C190.61,695.86,177.88,684.84,177.88,667Zm51.25-2.28c-.11-13.86-9.2-21.59-22.72-21.59-11.59,0-21.59,7.84-22.84,21.59Z" transform="translate(-177.88 -259.72)"/><path class="cls-1" d="M271.05,638.93v10c4.32-7.73,12.16-10.91,20-11,15,0,25.34,9.2,25.34,24.77v32.38h-5.56V662.79c0-12.73-7.85-19.54-20-19.43-11.6.11-19.66,8.86-19.66,20.45v31.25H265.6V638.93Z" transform="translate(-177.88 -259.72)"/><path class="cls-1" d="M339.11,638.93h6.14l20.45,49.66,20.45-49.66h6.14l-23.52,56.13h-6.14Z" transform="translate(-177.88 -259.72)"/><path class="cls-1" d="M425.92,620.63c0,5.91-9,5.91-9,0S425.92,614.72,425.92,620.63Zm-7.39,18.07v56.36h5.57V638.7Z" transform="translate(-177.88 -259.72)"/><path class="cls-1" d="M451.71,638.93h6.13l20.46,49.66,20.45-49.66h6.14l-23.53,56.13h-6.13Z" transform="translate(-177.88 -259.72)"/><path class="cls-1" d="M585.1,638.93v56.13h-5.57V683.13A26.23,26.23,0,0,1,556.58,696c-15.68,0-28.52-11.82-28.52-29s12.84-28.75,28.52-28.75c9.09,0,18.29,4.2,22.95,13V638.93ZM533.63,667c0,14.09,10.22,23.52,23,23.52,31.25,0,31.25-46.93,0-46.93C543.85,643.59,533.63,652.9,533.63,667Z" transform="translate(-177.88 -259.72)"/><path class="cls-1" d="M620.73,691.65c0,5.91-9,5.91-9,0S620.73,685.75,620.73,691.65Z" transform="translate(-177.88 -259.72)"/><path class="cls-1" d="M730.55,695.06V661.43c0-10.8-7.27-18.41-17.95-18.41s-18.07,8-18.07,18.75v33.29H689V661.77c0-10.8-7.38-18.64-18.07-18.64s-17.95,7.84-17.95,18.64v33.29h-5.57V638.93h5.23l.11,9.32c3.87-7.39,11-10.46,18.3-10.46,8.52,0,17.5,3.87,20.79,13.87,3.41-9.21,12.16-13.87,20.8-13.87,13.75,0,23.52,9.66,23.52,23.64v33.63Z" transform="translate(-177.88 -259.72)"/><path class="cls-1" d="M765.65,667c0-16.82,12.72-29,28.52-29s29.89,9.66,27.73,31.59H771.33c1.14,13.18,11.25,20.8,22.84,20.8,7.39,0,16-3,20.23-8.53l4,3.18c-5.45,7.16-15.22,10.8-24.2,10.8C778.37,695.86,765.65,684.84,765.65,667Zm51.25-2.28c-.12-13.86-9.21-21.59-22.73-21.59-11.59,0-21.59,7.84-22.84,21.59Z" transform="translate(-177.88 -259.72)"/><path class="cls-1" d="M395,362.54c-42.07,1.77-56.08,35.74-56.08,58.23S353,477.23,395,479c43.69,1.85,87.13-40.39,87.13-40.39a116.6,116.6,0,0,1-28.92-17.85,116.32,116.32,0,0,1,28.92-17.84S438.71,360.69,395,362.54Zm67.08,78c-15.26,10.77-55,44.21-92.51,19,7.09,2.3,17.37,2.75,24.27.85,16.05-4.41,41.66-24.85,51-32.62h0A197.48,197.48,0,0,0,462.1,440.55ZM371,448.61c-11.12-4.1-18.14-17.06-18.14-27.84s7-23.73,18.14-27.83c23.95-8.84,51,15.88,65.53,27.83C422,432.73,395,457.45,371,448.61ZM462.1,401a195.3,195.3,0,0,0-17.23,12.77h0c-9.34-7.77-34.95-28.2-51-32.62-6.9-1.9-17.18-1.45-24.27.85C407.14,356.78,446.84,390.23,462.1,401Z" transform="translate(-177.88 -259.72)"/><path class="cls-1" d="M605,479c42.07-1.78,56.08-35.74,56.08-58.24s-14-56.46-56.08-58.23c-43.69-1.85-87.13,40.39-87.13,40.39a116.32,116.32,0,0,1,28.92,17.84,116.6,116.6,0,0,1-28.92,17.85S561.29,480.86,605,479ZM537.9,401c15.26-10.76,55-44.21,92.51-19-7.09-2.3-17.37-2.75-24.27-.85-16,4.42-41.66,24.85-51,32.62h0A195.3,195.3,0,0,0,537.9,401Zm91.1-8.05c11.12,4.1,18.14,17.06,18.14,27.83s-7,23.74-18.14,27.84c-24,8.84-51-15.88-65.53-27.84C578,408.82,605.05,384.1,629,392.94Zm-91.1,47.61a197.48,197.48,0,0,0,17.23-12.76h0c9.34,7.77,35,28.21,51,32.62,6.9,1.9,17.18,1.45,24.27-.85C592.86,484.76,553.16,451.32,537.9,440.55Z" transform="translate(-177.88 -259.72)"/><path class="cls-1" d="M558.24,315.79c-1.78-42.06-35.74-56.07-58.24-56.07s-56.46,14-58.24,56.07c-1.84,43.69,40.4,87.13,40.4,87.13A116.32,116.32,0,0,1,500,374a116.32,116.32,0,0,1,17.84,28.92S560.08,359.48,558.24,315.79Zm-78,67.08c-10.76-15.26-44.21-55-19-92.51-2.3,7.09-2.75,17.38-.85,24.28,4.42,16,24.85,41.66,32.62,51h0A198.68,198.68,0,0,0,480.22,382.87Zm-8.06-91.1c4.1-11.11,17.07-18.14,27.84-18.14s23.74,7,27.84,18.14c8.83,24-15.88,51-27.84,65.53C488,342.81,463.33,315.72,472.16,291.77Zm47.62,91.1A198.68,198.68,0,0,0,507,365.65h0c7.77-9.33,28.2-34.95,32.62-51,1.9-6.9,1.45-17.19-.85-24.28C564,327.91,530.54,367.61,519.78,382.87Z" transform="translate(-177.88 -259.72)"/><path class="cls-1" d="M441.76,525.76c1.78,42.06,35.74,56.07,58.24,56.07s56.46-14,58.24-56.07c1.84-43.7-40.4-87.14-40.4-87.14A116.13,116.13,0,0,1,500,467.54a116.13,116.13,0,0,1-17.84-28.92S439.92,482.06,441.76,525.76Zm78-67.09c10.76,15.27,44.21,55,19,92.52,2.3-7.1,2.75-17.38.85-24.28-4.42-16-24.85-41.66-32.62-51h0A197.48,197.48,0,0,0,519.78,458.67Zm8.06,91.11c-4.1,11.11-17.07,18.13-27.84,18.13s-23.74-7-27.84-18.13c-8.83-24,15.88-51,27.84-65.54C512,498.74,536.67,525.82,527.84,549.78Zm-47.62-91.11A197.48,197.48,0,0,0,493,475.9h0c-7.77,9.34-28.2,34.95-32.62,51-1.9,6.9-1.45,17.18.85,24.28C436,513.64,469.46,473.94,480.22,458.67Z" transform="translate(-177.88 -259.72)"/><path class="cls-1" d="M620.75,309.36l-59.5,50.16L611.42,300a6.62,6.62,0,1,1,10.12,8.53A6,6,0,0,1,620.75,309.36Z" transform="translate(-177.88 -259.72)"/><path class="cls-1" d="M622.41,331.24a6.63,6.63,0,0,0-8.83-3.14,8.5,8.5,0,0,0-1,.57L549,373.51l70.28-33.45A6.62,6.62,0,0,0,622.41,331.24Z" transform="translate(-177.88 -259.72)"/><path class="cls-1" d="M589.53,298.36a6.61,6.61,0,0,1,2.57,9.8l-44.84,63.61,33.45-70.27A6.61,6.61,0,0,1,589.53,298.36Z" transform="translate(-177.88 -259.72)"/><path class="cls-1" d="M379.25,532.19,438.75,482l-50.17,59.5A6.62,6.62,0,1,1,378.46,533,6.55,6.55,0,0,1,379.25,532.19Z" transform="translate(-177.88 -259.72)"/><path class="cls-1" d="M377.59,510.31a6.63,6.63,0,0,0,8.83,3.13,8.43,8.43,0,0,0,1-.56L451,468l-70.28,33.44A6.63,6.63,0,0,0,377.59,510.31Z" transform="translate(-177.88 -259.72)"/><path class="cls-1" d="M410.46,543.18a6.62,6.62,0,0,1-3.13-8.82,6.18,6.18,0,0,1,.57-1l44.84-63.61-33.45,70.27A6.62,6.62,0,0,1,410.46,543.18Z" transform="translate(-177.88 -259.72)"/><path class="cls-1" d="M611.41,541.52,561.25,482l59.5,50.17a6.62,6.62,0,0,1-8.54,10.13A8.63,8.63,0,0,1,611.41,541.52Z" transform="translate(-177.88 -259.72)"/><path class="cls-1" d="M589.53,543.18a6.61,6.61,0,0,0,3.14-8.82,6.18,6.18,0,0,0-.57-1l-44.84-63.61,33.45,70.27A6.61,6.61,0,0,0,589.53,543.18Z" transform="translate(-177.88 -259.72)"/><path class="cls-1" d="M622.41,510.31a6.63,6.63,0,0,1-8.83,3.13,8.43,8.43,0,0,1-1-.56L549,468l70.28,33.44A6.63,6.63,0,0,1,622.41,510.31Z" transform="translate(-177.88 -259.72)"/><path class="cls-1" d="M388.58,300l50.17,59.5-59.5-50.16a6.62,6.62,0,0,1,8.54-10.13A7.37,7.37,0,0,1,388.58,300Z" transform="translate(-177.88 -259.72)"/><path class="cls-1" d="M410.46,298.36a6.62,6.62,0,0,0-2.56,9.8l44.84,63.61L419.29,301.5A6.62,6.62,0,0,0,410.46,298.36Z" transform="translate(-177.88 -259.72)"/><path class="cls-1" d="M377.59,331.24a6.63,6.63,0,0,1,8.83-3.14,8.5,8.5,0,0,1,1,.57L451,373.51l-70.28-33.45A6.62,6.62,0,0,1,377.59,331.24Z" transform="translate(-177.88 -259.72)"/></g></svg>