<svg width="228" height="198" viewBox="0 0 228 198" fill="none" xmlns="http://www.w3.org/2000/svg">
<g opacity="0.5">
<g opacity="0.5" clip-path="url(#clip0)">
<path d="M59.1416 19.7849C51.344 20.1136 48.7448 26.4174 48.7448 30.6C48.7448 34.7826 51.344 41.0864 59.1416 41.4151C67.238 41.7437 75.3045 33.9162 75.3045 33.9162C72.8546 32.8706 71.1816 31.6158 69.9268 30.6C71.1517 29.5842 72.8546 28.3294 75.3045 27.2838C75.3045 27.2838 67.238 19.4563 59.1416 19.7849ZM71.5998 34.2747C68.7616 36.2764 61.3823 42.4607 54.4212 37.8001C55.7358 38.2183 57.6478 38.308 58.9325 37.9495C61.9201 37.1428 66.6703 33.3486 68.4031 31.8847C69.15 32.5121 70.3451 33.4681 71.5998 34.2747ZM54.6901 35.7685C52.6287 34.9917 51.3141 32.6017 51.3141 30.6C51.3141 28.5983 52.6287 26.2082 54.6901 25.4315C59.1416 23.7883 64.1608 28.3892 66.8496 30.6C64.1608 32.8108 59.1416 37.4117 54.6901 35.7685ZM71.5998 26.9253C70.3451 27.7319 69.15 28.6879 68.4031 29.2855C66.6703 27.8514 61.9201 24.0572 58.9325 23.2505C57.6478 22.892 55.7358 22.9817 54.4212 23.3999C61.3823 18.7393 68.7616 24.9236 71.5998 26.9253Z" fill="white"/>
<path d="M98.0997 41.4151C105.897 41.0864 108.497 34.7826 108.497 30.6C108.497 26.4174 105.897 20.1136 98.0997 19.7849C90.0034 19.4563 81.9369 27.2838 81.9369 27.2838C84.3867 28.3294 86.0598 29.5842 87.3145 30.6C86.0896 31.6158 84.3867 32.8706 81.9369 33.9162C81.9369 33.9162 90.0034 41.7437 98.0997 41.4151ZM85.6415 26.9253C88.4797 24.9236 95.859 18.7393 102.82 23.3999C101.506 22.9817 99.5935 22.892 98.3089 23.2505C95.3213 24.0572 90.571 27.8514 88.8382 29.3153C88.0913 28.6879 86.8963 27.7319 85.6415 26.9253ZM102.551 25.4315C104.613 26.1784 105.927 28.5983 105.927 30.6C105.927 32.6017 104.613 34.9917 102.551 35.7685C98.0997 37.4117 93.0806 32.8108 90.3918 30.6C93.0806 28.3892 98.0997 23.7883 102.551 25.4315ZM85.6415 34.2747C86.8963 33.4681 88.0913 32.5121 88.8382 31.9145C90.571 33.3486 95.3213 37.1428 98.3089 37.9793C99.5935 38.3378 101.506 38.2482 102.82 37.83C95.859 42.4607 88.4797 36.2764 85.6415 34.2747Z" fill="white"/>
<path d="M89.4357 11.1209C89.1071 3.32334 82.8033 0.724136 78.6207 0.724136C74.438 0.724136 68.1342 3.32334 67.8056 11.1209C67.477 19.2173 75.3044 27.2838 75.3044 27.2838C76.3501 24.834 77.6049 23.1609 78.6207 21.9061C79.6364 23.131 80.8912 24.834 81.9369 27.2838C81.9369 27.2838 89.7644 19.2173 89.4357 11.1209ZM74.9459 23.5792C72.9442 20.741 66.7599 13.3616 71.4206 6.40055C71.0023 7.71509 70.9127 9.62714 71.2712 10.9118C72.0778 13.8994 75.8721 18.6497 77.336 20.3825C76.7086 21.1294 75.7526 22.3244 74.9459 23.5792ZM73.4521 6.66943C74.2289 4.608 76.619 3.29346 78.6207 3.29346C80.6223 3.29346 83.0124 4.608 83.7892 6.66943C85.4324 11.1209 80.8315 16.1401 78.6207 18.8289C76.4098 16.1401 71.809 11.1209 73.4521 6.66943ZM82.2954 23.5792C81.4887 22.3244 80.5327 21.1294 79.9352 20.3825C81.3692 18.6497 85.1635 13.8994 86 10.9118C86.3585 9.62714 86.2689 7.71509 85.8506 6.40055C90.4814 13.3616 84.2971 20.741 82.2954 23.5792Z" fill="white"/>
<path d="M67.8056 50.0791C68.1342 57.8767 74.438 60.4759 78.6207 60.4759C82.8033 60.4759 89.1071 57.8767 89.4357 50.0791C89.7644 41.9827 81.9369 33.9162 81.9369 33.9162C80.8912 36.366 79.6364 38.0391 78.6207 39.2939C77.6049 38.069 76.3501 36.366 75.3044 33.9162C75.3044 33.9162 67.477 41.9827 67.8056 50.0791ZM82.2954 37.6208C84.2971 40.459 90.5113 47.8085 85.8207 54.7696C86.239 53.455 86.3286 51.543 85.9701 50.2583C85.1635 47.2707 81.3692 42.5205 79.9053 40.7877C80.5327 40.0706 81.4887 38.8756 82.2954 37.6208ZM83.7892 54.5306C83.0423 56.592 80.6223 57.9065 78.6207 57.9065C76.619 57.9065 74.2289 56.592 73.4521 54.5306C71.809 50.0791 76.4098 45.0599 78.6207 42.3711C80.8315 45.0599 85.4324 50.0791 83.7892 54.5306ZM74.9459 37.6208C75.7526 38.8756 76.7086 40.0706 77.3061 40.8175C75.8721 42.5503 72.0778 47.3006 71.2413 50.2882C70.8828 51.5728 70.9724 53.4849 71.3907 54.7994C66.7599 47.8384 72.9442 40.459 74.9459 37.6208Z" fill="white"/>
<path d="M101.028 9.92591L89.9734 19.2472L99.2947 8.19311C99.7429 7.68522 100.52 7.59559 101.028 8.04373C101.535 8.49186 101.625 9.26864 101.177 9.77653C101.117 9.83628 101.057 9.89603 101.028 9.92591Z" fill="white"/>
<path d="M101.326 13.989C101.028 13.3616 100.31 13.1226 99.6831 13.4214C99.6234 13.4512 99.5636 13.4811 99.5038 13.5409L87.7029 21.8464L100.729 15.6322C101.356 15.3334 101.625 14.6164 101.326 13.989Z" fill="white"/>
<path d="M95.2316 7.89529C95.859 8.19405 96.098 8.91107 95.7993 9.53846C95.7694 9.59821 95.7395 9.65796 95.6798 9.71772L87.3743 21.5187L93.5885 8.49281C93.8872 7.86541 94.6042 7.59653 95.2316 7.89529Z" fill="white"/>
<path d="M56.2137 51.2741L67.2678 41.9528L57.9465 53.0069C57.4984 53.5148 56.7216 53.6044 56.2137 53.1563C55.7058 52.7081 55.6162 51.9314 56.0644 51.4235C56.1241 51.3637 56.1839 51.304 56.2137 51.2741Z" fill="white"/>
<path d="M55.9159 47.211C56.2147 47.8384 56.9317 48.0774 57.5591 47.7786C57.6189 47.7488 57.6786 47.7189 57.7384 47.6591L69.5393 39.3536L56.5135 45.5678C55.8861 45.8666 55.6172 46.5836 55.9159 47.211Z" fill="white"/>
<path d="M62.0097 53.3057C61.3823 53.0069 61.1433 52.2899 61.442 51.6625C61.4719 51.6027 61.5018 51.543 61.5615 51.4832L69.867 39.6823L63.6528 52.7081C63.3541 53.3355 62.6371 53.6044 62.0097 53.3057Z" fill="white"/>
<path d="M99.2947 53.0069L89.9734 41.9528L100.998 51.2442C101.506 51.6924 101.595 52.4691 101.147 52.977C100.699 53.4849 99.9221 53.5745 99.4142 53.1264C99.3843 53.0965 99.3246 53.0368 99.2947 53.0069Z" fill="white"/>
<path d="M95.2316 53.3057C95.859 53.0069 96.098 52.2899 95.7993 51.6625C95.7694 51.6027 95.7395 51.543 95.6798 51.4832L87.3743 39.6823L93.5885 52.7081C93.8872 53.3355 94.6042 53.6044 95.2316 53.3057Z" fill="white"/>
<path d="M101.326 47.211C101.028 47.8384 100.31 48.0774 99.6831 47.7786C99.6234 47.7488 99.5636 47.7189 99.5038 47.6591L87.7029 39.3536L100.729 45.5678C101.356 45.8666 101.625 46.5836 101.326 47.211Z" fill="white"/>
<path d="M57.9465 8.19311L67.2678 19.2472L56.2137 9.92591C55.7058 9.47777 55.6162 8.701 56.0644 8.19311C56.5125 7.68522 57.2893 7.59559 57.7972 8.04373C57.8569 8.10348 57.9167 8.16323 57.9465 8.19311Z" fill="white"/>
<path d="M62.0097 7.89435C61.3823 8.19311 61.1433 8.91013 61.442 9.53752C61.4719 9.59727 61.5018 9.65702 61.5615 9.71677L69.867 21.5177L63.6528 8.46199C63.3541 7.86447 62.6371 7.59559 62.0097 7.89435Z" fill="white"/>
<path d="M55.915 13.989C56.2138 13.3616 56.9308 13.1226 57.5582 13.4214C57.6179 13.4512 57.6777 13.4811 57.7374 13.5409L69.5384 21.8464L56.4826 15.6322C55.8851 15.3334 55.6162 14.6164 55.915 13.989Z" fill="white"/>
</g>
<g opacity="0.5" clip-path="url(#clip1)">
<path d="M59.1416 117.275C51.344 117.603 48.7448 123.907 48.7448 128.09C48.7448 132.272 51.344 138.576 59.1416 138.905C67.238 139.233 75.3045 131.406 75.3045 131.406C72.8546 130.36 71.1816 129.105 69.9268 128.09C71.1517 127.074 72.8546 125.819 75.3045 124.773C75.3045 124.773 67.238 116.946 59.1416 117.275ZM71.5998 131.764C68.7616 133.766 61.3823 139.95 54.4212 135.29C55.7358 135.708 57.6478 135.798 58.9325 135.439C61.9201 134.632 66.6703 130.838 68.4031 129.374C69.15 130.002 70.3451 130.958 71.5998 131.764ZM54.6901 133.258C52.6287 132.481 51.3141 130.091 51.3141 128.09C51.3141 126.088 52.6287 123.698 54.6901 122.921C59.1416 121.278 64.1608 125.879 66.8496 128.09C64.1608 130.3 59.1416 134.901 54.6901 133.258ZM71.5998 124.415C70.3451 125.222 69.15 126.178 68.4031 126.775C66.6703 125.341 61.9201 121.547 58.9325 120.74C57.6478 120.382 55.7358 120.471 54.4212 120.89C61.3823 116.229 68.7616 122.413 71.5998 124.415Z" fill="white"/>
<path d="M98.0997 138.905C105.897 138.576 108.497 132.272 108.497 128.09C108.497 123.907 105.897 117.603 98.0997 117.275C90.0034 116.946 81.9369 124.773 81.9369 124.773C84.3867 125.819 86.0598 127.074 87.3145 128.09C86.0896 129.105 84.3867 130.36 81.9369 131.406C81.9369 131.406 90.0034 139.233 98.0997 138.905ZM85.6415 124.415C88.4797 122.413 95.859 116.229 102.82 120.89C101.506 120.471 99.5935 120.382 98.3089 120.74C95.3213 121.547 90.571 125.341 88.8382 126.805C88.0913 126.178 86.8963 125.222 85.6415 124.415ZM102.551 122.921C104.613 123.668 105.927 126.088 105.927 128.09C105.927 130.091 104.613 132.481 102.551 133.258C98.0997 134.901 93.0806 130.3 90.3918 128.09C93.0806 125.879 98.0997 121.278 102.551 122.921ZM85.6415 131.764C86.8963 130.958 88.0913 130.002 88.8382 129.404C90.571 130.838 95.3213 134.632 98.3089 135.469C99.5935 135.827 101.506 135.738 102.82 135.32C95.859 139.95 88.4797 133.766 85.6415 131.764Z" fill="white"/>
<path d="M89.4357 108.611C89.1071 100.813 82.8033 98.2138 78.6207 98.2138C74.438 98.2138 68.1342 100.813 67.8056 108.611C67.477 116.707 75.3044 124.773 75.3044 124.773C76.3501 122.324 77.6049 120.651 78.6207 119.396C79.6364 120.621 80.8912 122.324 81.9369 124.773C81.9369 124.773 89.7644 116.707 89.4357 108.611ZM74.9459 121.069C72.9442 118.231 66.7599 110.851 71.4206 103.89C71.0023 105.205 70.9127 107.117 71.2712 108.401C72.0778 111.389 75.8721 116.139 77.336 117.872C76.7086 118.619 75.7526 119.814 74.9459 121.069ZM73.4521 104.159C74.2289 102.098 76.619 100.783 78.6207 100.783C80.6223 100.783 83.0124 102.098 83.7892 104.159C85.4324 108.611 80.8315 113.63 78.6207 116.319C76.4098 113.63 71.809 108.611 73.4521 104.159ZM82.2954 121.069C81.4887 119.814 80.5327 118.619 79.9352 117.872C81.3692 116.139 85.1635 111.389 86 108.401C86.3585 107.117 86.2689 105.205 85.8506 103.89C90.4814 110.851 84.2971 118.231 82.2954 121.069Z" fill="white"/>
<path d="M67.8056 147.569C68.1342 155.366 74.438 157.966 78.6207 157.966C82.8033 157.966 89.1071 155.366 89.4357 147.569C89.7644 139.472 81.9369 131.406 81.9369 131.406C80.8912 133.856 79.6364 135.529 78.6207 136.784C77.6049 135.559 76.3501 133.856 75.3044 131.406C75.3044 131.406 67.477 139.472 67.8056 147.569ZM82.2954 135.11C84.2971 137.949 90.5113 145.298 85.8207 152.259C86.239 150.945 86.3286 149.033 85.9701 147.748C85.1635 144.76 81.3692 140.01 79.9053 138.277C80.5327 137.56 81.4887 136.365 82.2954 135.11ZM83.7892 152.02C83.0423 154.082 80.6223 155.396 78.6207 155.396C76.619 155.396 74.2289 154.082 73.4521 152.02C71.809 147.569 76.4098 142.55 78.6207 139.861C80.8315 142.55 85.4324 147.569 83.7892 152.02ZM74.9459 135.11C75.7526 136.365 76.7086 137.56 77.3061 138.307C75.8721 140.04 72.0778 144.79 71.2413 147.778C70.8828 149.063 70.9724 150.975 71.3907 152.289C66.7599 145.328 72.9442 137.949 74.9459 135.11Z" fill="white"/>
<path d="M101.028 107.416L89.9734 116.737L99.2947 105.683C99.7429 105.175 100.52 105.085 101.028 105.533C101.535 105.982 101.625 106.758 101.177 107.266C101.117 107.326 101.057 107.386 101.028 107.416Z" fill="white"/>
<path d="M101.326 111.479C101.028 110.851 100.31 110.612 99.6831 110.911C99.6234 110.941 99.5636 110.971 99.5038 111.031L87.7029 119.336L100.729 113.122C101.356 112.823 101.625 112.106 101.326 111.479Z" fill="white"/>
<path d="M95.2316 105.385C95.859 105.684 96.098 106.401 95.7993 107.028C95.7694 107.088 95.7395 107.148 95.6798 107.207L87.3743 119.008L93.5885 105.982C93.8872 105.355 94.6042 105.086 95.2316 105.385Z" fill="white"/>
<path d="M56.2137 148.764L67.2678 139.443L57.9465 150.497C57.4984 151.004 56.7216 151.094 56.2137 150.646C55.7058 150.198 55.6162 149.421 56.0644 148.913C56.1241 148.853 56.1839 148.794 56.2137 148.764Z" fill="white"/>
<path d="M55.9159 144.701C56.2147 145.328 56.9317 145.567 57.5591 145.268C57.6189 145.238 57.6786 145.209 57.7384 145.149L69.5393 136.843L56.5135 143.057C55.8861 143.356 55.6172 144.073 55.9159 144.701Z" fill="white"/>
<path d="M62.0097 150.795C61.3823 150.497 61.1433 149.78 61.442 149.152C61.4719 149.092 61.5018 149.033 61.5615 148.973L69.867 137.172L63.6528 150.198C63.3541 150.825 62.6371 151.094 62.0097 150.795Z" fill="white"/>
<path d="M99.2947 150.497L89.9734 139.443L100.998 148.734C101.506 149.182 101.595 149.959 101.147 150.467C100.699 150.975 99.9221 151.064 99.4142 150.616C99.3843 150.586 99.3246 150.526 99.2947 150.497Z" fill="white"/>
<path d="M95.2316 150.795C95.859 150.497 96.098 149.78 95.7993 149.152C95.7694 149.092 95.7395 149.033 95.6798 148.973L87.3743 137.172L93.5885 150.198C93.8872 150.825 94.6042 151.094 95.2316 150.795Z" fill="white"/>
<path d="M101.326 144.701C101.028 145.328 100.31 145.567 99.6831 145.268C99.6234 145.238 99.5636 145.209 99.5038 145.149L87.7029 136.843L100.729 143.057C101.356 143.356 101.625 144.073 101.326 144.701Z" fill="white"/>
<path d="M57.9465 105.683L67.2678 116.737L56.2137 107.416C55.7058 106.967 55.6162 106.191 56.0644 105.683C56.5125 105.175 57.2893 105.085 57.7972 105.533C57.8569 105.593 57.9167 105.653 57.9465 105.683Z" fill="white"/>
<path d="M62.0097 105.384C61.3823 105.683 61.1433 106.4 61.442 107.027C61.4719 107.087 61.5018 107.147 61.5615 107.206L69.867 119.007L63.6528 105.952C63.3541 105.354 62.6371 105.085 62.0097 105.384Z" fill="white"/>
<path d="M55.915 111.479C56.2138 110.851 56.9308 110.612 57.5582 110.911C57.6179 110.941 57.6777 110.971 57.7374 111.031L69.5384 119.336L56.4826 113.122C55.8851 112.823 55.6162 112.106 55.915 111.479Z" fill="white"/>
</g>
<g opacity="0.5" clip-path="url(#clip2)">
<path d="M178.645 19.7849C170.847 20.1136 168.248 26.4174 168.248 30.6C168.248 34.7826 170.847 41.0864 178.645 41.4151C186.741 41.7437 194.808 33.9162 194.808 33.9162C192.358 32.8706 190.685 31.6158 189.43 30.6C190.655 29.5842 192.358 28.3294 194.808 27.2838C194.808 27.2838 186.741 19.4563 178.645 19.7849ZM191.103 34.2747C188.265 36.2764 180.886 42.4607 173.925 37.8001C175.239 38.2183 177.151 38.308 178.436 37.9495C181.424 37.1428 186.174 33.3486 187.907 31.8847C188.654 32.5121 189.849 33.4681 191.103 34.2747ZM174.194 35.7685C172.132 34.9917 170.818 32.6017 170.818 30.6C170.818 28.5983 172.132 26.2082 174.194 25.4315C178.645 23.7883 183.664 28.3892 186.353 30.6C183.664 32.8108 178.645 37.4117 174.194 35.7685ZM191.103 26.9253C189.849 27.7319 188.654 28.6879 187.907 29.2855C186.174 27.8514 181.424 24.0572 178.436 23.2505C177.151 22.892 175.239 22.9817 173.925 23.3999C180.886 18.7393 188.265 24.9236 191.103 26.9253Z" fill="white"/>
<path d="M217.603 41.4151C225.401 41.0864 228 34.7826 228 30.6C228 26.4174 225.401 20.1136 217.603 19.7849C209.507 19.4563 201.44 27.2838 201.44 27.2838C203.89 28.3294 205.563 29.5842 206.818 30.6C205.593 31.6158 203.89 32.8706 201.44 33.9162C201.44 33.9162 209.507 41.7437 217.603 41.4151ZM205.145 26.9253C207.983 24.9236 215.363 18.7393 222.324 23.3999C221.009 22.9817 219.097 22.892 217.812 23.2505C214.825 24.0572 210.075 27.8514 208.342 29.3153C207.595 28.6879 206.4 27.7319 205.145 26.9253ZM222.055 25.4315C224.116 26.1784 225.431 28.5983 225.431 30.6C225.431 32.6017 224.116 34.9917 222.055 35.7685C217.603 37.4117 212.584 32.8108 209.895 30.6C212.584 28.3892 217.603 23.7883 222.055 25.4315ZM205.145 34.2747C206.4 33.4681 207.595 32.5121 208.342 31.9145C210.075 33.3486 214.825 37.1428 217.812 37.9793C219.097 38.3378 221.009 38.2482 222.324 37.83C215.363 42.4607 207.983 36.2764 205.145 34.2747Z" fill="white"/>
<path d="M208.939 11.1209C208.611 3.32334 202.307 0.724136 198.124 0.724136C193.942 0.724136 187.638 3.32334 187.309 11.1209C186.98 19.2173 194.808 27.2838 194.808 27.2838C195.854 24.834 197.108 23.1609 198.124 21.9061C199.14 23.131 200.395 24.834 201.44 27.2838C201.44 27.2838 209.268 19.2173 208.939 11.1209ZM194.449 23.5792C192.448 20.741 186.263 13.3616 190.924 6.40055C190.506 7.71509 190.416 9.62714 190.775 10.9118C191.581 13.8994 195.376 18.6497 196.84 20.3825C196.212 21.1294 195.256 22.3244 194.449 23.5792ZM192.956 6.66943C193.732 4.608 196.122 3.29346 198.124 3.29346C200.126 3.29346 202.516 4.608 203.293 6.66943C204.936 11.1209 200.335 16.1401 198.124 18.8289C195.913 16.1401 191.312 11.1209 192.956 6.66943ZM201.799 23.5792C200.992 22.3244 200.036 21.1294 199.439 20.3825C200.873 18.6497 204.667 13.8994 205.504 10.9118C205.862 9.62714 205.772 7.71509 205.354 6.40055C209.985 13.3616 203.801 20.741 201.799 23.5792Z" fill="white"/>
<path d="M187.309 50.0791C187.638 57.8767 193.942 60.4759 198.124 60.4759C202.307 60.4759 208.611 57.8767 208.939 50.0791C209.268 41.9827 201.44 33.9162 201.44 33.9162C200.395 36.366 199.14 38.0391 198.124 39.2939C197.108 38.069 195.854 36.366 194.808 33.9162C194.808 33.9162 186.98 41.9827 187.309 50.0791ZM201.799 37.6208C203.801 40.459 210.015 47.8085 205.324 54.7696C205.743 53.455 205.832 51.543 205.474 50.2583C204.667 47.2707 200.873 42.5205 199.409 40.7877C200.036 40.0706 200.992 38.8756 201.799 37.6208ZM203.293 54.5306C202.546 56.592 200.126 57.9065 198.124 57.9065C196.122 57.9065 193.732 56.592 192.956 54.5306C191.312 50.0791 195.913 45.0599 198.124 42.3711C200.335 45.0599 204.936 50.0791 203.293 54.5306ZM194.449 37.6208C195.256 38.8756 196.212 40.0706 196.81 40.8175C195.376 42.5503 191.581 47.3006 190.745 50.2882C190.386 51.5728 190.476 53.4849 190.894 54.7994C186.263 47.8384 192.448 40.459 194.449 37.6208Z" fill="white"/>
<path d="M220.531 9.92591L209.477 19.2472L218.798 8.19311C219.246 7.68522 220.023 7.59559 220.531 8.04373C221.039 8.49186 221.129 9.26864 220.68 9.77653C220.621 9.83628 220.561 9.89603 220.531 9.92591Z" fill="white"/>
<path d="M220.83 13.989C220.531 13.3616 219.814 13.1226 219.187 13.4214C219.127 13.4512 219.067 13.4811 219.007 13.5409L207.206 21.8464L220.232 15.6322C220.86 15.3334 221.129 14.6164 220.83 13.989Z" fill="white"/>
<path d="M214.735 7.89529C215.363 8.19405 215.602 8.91107 215.303 9.53846C215.273 9.59821 215.243 9.65796 215.183 9.71772L206.878 21.5187L213.092 8.49281C213.391 7.86541 214.108 7.59653 214.735 7.89529Z" fill="white"/>
<path d="M175.717 51.2741L186.771 41.9528L177.45 53.0069C177.002 53.5148 176.225 53.6044 175.717 53.1563C175.209 52.7081 175.12 51.9314 175.568 51.4235C175.628 51.3637 175.687 51.304 175.717 51.2741Z" fill="white"/>
<path d="M175.419 47.211C175.718 47.8384 176.435 48.0774 177.063 47.7786C177.122 47.7488 177.182 47.7189 177.242 47.6591L189.043 39.3536L176.017 45.5678C175.39 45.8666 175.121 46.5836 175.419 47.211Z" fill="white"/>
<path d="M181.513 53.3057C180.886 53.0069 180.647 52.2899 180.946 51.6625C180.975 51.6027 181.005 51.543 181.065 51.4832L189.371 39.6823L183.156 52.7081C182.858 53.3355 182.141 53.6044 181.513 53.3057Z" fill="white"/>
<path d="M218.798 53.0069L209.477 41.9528L220.501 51.2442C221.009 51.6924 221.099 52.4691 220.651 52.977C220.202 53.4849 219.426 53.5745 218.918 53.1264C218.888 53.0965 218.828 53.0368 218.798 53.0069Z" fill="white"/>
<path d="M214.735 53.3057C215.363 53.0069 215.602 52.2899 215.303 51.6625C215.273 51.6027 215.243 51.543 215.183 51.4832L206.878 39.6823L213.092 52.7081C213.391 53.3355 214.108 53.6044 214.735 53.3057Z" fill="white"/>
<path d="M220.83 47.211C220.531 47.8384 219.814 48.0774 219.187 47.7786C219.127 47.7488 219.067 47.7189 219.007 47.6591L207.206 39.3536L220.232 45.5678C220.86 45.8666 221.129 46.5836 220.83 47.211Z" fill="white"/>
<path d="M177.45 8.19311L186.771 19.2472L175.717 9.92591C175.209 9.47777 175.12 8.701 175.568 8.19311C176.016 7.68522 176.793 7.59559 177.301 8.04373C177.36 8.10348 177.42 8.16323 177.45 8.19311Z" fill="white"/>
<path d="M181.513 7.89435C180.886 8.19311 180.647 8.91013 180.946 9.53752C180.975 9.59727 181.005 9.65702 181.065 9.71677L189.371 21.5177L183.156 8.46199C182.858 7.86447 182.141 7.59559 181.513 7.89435Z" fill="white"/>
<path d="M175.418 13.989C175.717 13.3616 176.434 13.1226 177.062 13.4214C177.121 13.4512 177.181 13.4811 177.241 13.5409L189.042 21.8464L175.986 15.6322C175.389 15.3334 175.12 14.6164 175.418 13.989Z" fill="white"/>
</g>
<g opacity="0.5" clip-path="url(#clip3)">
<path d="M178.645 117.275C170.847 117.603 168.248 123.907 168.248 128.09C168.248 132.272 170.847 138.576 178.645 138.905C186.741 139.233 194.808 131.406 194.808 131.406C192.358 130.36 190.685 129.105 189.43 128.09C190.655 127.074 192.358 125.819 194.808 124.773C194.808 124.773 186.741 116.946 178.645 117.275ZM191.103 131.764C188.265 133.766 180.886 139.95 173.925 135.29C175.239 135.708 177.151 135.798 178.436 135.439C181.424 134.632 186.174 130.838 187.907 129.374C188.654 130.002 189.849 130.958 191.103 131.764ZM174.194 133.258C172.132 132.481 170.818 130.091 170.818 128.09C170.818 126.088 172.132 123.698 174.194 122.921C178.645 121.278 183.664 125.879 186.353 128.09C183.664 130.3 178.645 134.901 174.194 133.258ZM191.103 124.415C189.849 125.222 188.654 126.178 187.907 126.775C186.174 125.341 181.424 121.547 178.436 120.74C177.151 120.382 175.239 120.471 173.925 120.89C180.886 116.229 188.265 122.413 191.103 124.415Z" fill="white"/>
<path d="M217.603 138.905C225.401 138.576 228 132.272 228 128.09C228 123.907 225.401 117.603 217.603 117.275C209.507 116.946 201.44 124.773 201.44 124.773C203.89 125.819 205.563 127.074 206.818 128.09C205.593 129.105 203.89 130.36 201.44 131.406C201.44 131.406 209.507 139.233 217.603 138.905ZM205.145 124.415C207.983 122.413 215.363 116.229 222.324 120.89C221.009 120.471 219.097 120.382 217.812 120.74C214.825 121.547 210.075 125.341 208.342 126.805C207.595 126.178 206.4 125.222 205.145 124.415ZM222.055 122.921C224.116 123.668 225.431 126.088 225.431 128.09C225.431 130.091 224.116 132.481 222.055 133.258C217.603 134.901 212.584 130.3 209.895 128.09C212.584 125.879 217.603 121.278 222.055 122.921ZM205.145 131.764C206.4 130.958 207.595 130.002 208.342 129.404C210.075 130.838 214.825 134.632 217.812 135.469C219.097 135.827 221.009 135.738 222.324 135.32C215.363 139.95 207.983 133.766 205.145 131.764Z" fill="white"/>
<path d="M208.939 108.611C208.611 100.813 202.307 98.2138 198.124 98.2138C193.942 98.2138 187.638 100.813 187.309 108.611C186.98 116.707 194.808 124.773 194.808 124.773C195.854 122.324 197.108 120.651 198.124 119.396C199.14 120.621 200.395 122.324 201.44 124.773C201.44 124.773 209.268 116.707 208.939 108.611ZM194.449 121.069C192.448 118.231 186.263 110.851 190.924 103.89C190.506 105.205 190.416 107.117 190.775 108.401C191.581 111.389 195.376 116.139 196.84 117.872C196.212 118.619 195.256 119.814 194.449 121.069ZM192.956 104.159C193.732 102.098 196.122 100.783 198.124 100.783C200.126 100.783 202.516 102.098 203.293 104.159C204.936 108.611 200.335 113.63 198.124 116.319C195.913 113.63 191.312 108.611 192.956 104.159ZM201.799 121.069C200.992 119.814 200.036 118.619 199.439 117.872C200.873 116.139 204.667 111.389 205.504 108.401C205.862 107.117 205.772 105.205 205.354 103.89C209.985 110.851 203.801 118.231 201.799 121.069Z" fill="white"/>
<path d="M187.309 147.569C187.638 155.366 193.942 157.966 198.124 157.966C202.307 157.966 208.611 155.366 208.939 147.569C209.268 139.472 201.44 131.406 201.44 131.406C200.395 133.856 199.14 135.529 198.124 136.784C197.108 135.559 195.854 133.856 194.808 131.406C194.808 131.406 186.98 139.472 187.309 147.569ZM201.799 135.11C203.801 137.949 210.015 145.298 205.324 152.259C205.743 150.945 205.832 149.033 205.474 147.748C204.667 144.76 200.873 140.01 199.409 138.277C200.036 137.56 200.992 136.365 201.799 135.11ZM203.293 152.02C202.546 154.082 200.126 155.396 198.124 155.396C196.122 155.396 193.732 154.082 192.956 152.02C191.312 147.569 195.913 142.55 198.124 139.861C200.335 142.55 204.936 147.569 203.293 152.02ZM194.449 135.11C195.256 136.365 196.212 137.56 196.81 138.307C195.376 140.04 191.581 144.79 190.745 147.778C190.386 149.063 190.476 150.975 190.894 152.289C186.263 145.328 192.448 137.949 194.449 135.11Z" fill="white"/>
<path d="M220.531 107.416L209.477 116.737L218.798 105.683C219.246 105.175 220.023 105.085 220.531 105.533C221.039 105.982 221.129 106.758 220.68 107.266C220.621 107.326 220.561 107.386 220.531 107.416Z" fill="white"/>
<path d="M220.83 111.479C220.531 110.851 219.814 110.612 219.187 110.911C219.127 110.941 219.067 110.971 219.007 111.031L207.206 119.336L220.232 113.122C220.86 112.823 221.129 112.106 220.83 111.479Z" fill="white"/>
<path d="M214.735 105.385C215.363 105.684 215.602 106.401 215.303 107.028C215.273 107.088 215.243 107.148 215.183 107.207L206.878 119.008L213.092 105.982C213.391 105.355 214.108 105.086 214.735 105.385Z" fill="white"/>
<path d="M175.717 148.764L186.771 139.443L177.45 150.497C177.002 151.004 176.225 151.094 175.717 150.646C175.209 150.198 175.12 149.421 175.568 148.913C175.628 148.853 175.687 148.794 175.717 148.764Z" fill="white"/>
<path d="M175.419 144.701C175.718 145.328 176.435 145.567 177.063 145.268C177.122 145.238 177.182 145.209 177.242 145.149L189.043 136.843L176.017 143.057C175.39 143.356 175.121 144.073 175.419 144.701Z" fill="white"/>
<path d="M181.513 150.795C180.886 150.497 180.647 149.78 180.946 149.152C180.975 149.092 181.005 149.033 181.065 148.973L189.371 137.172L183.156 150.198C182.858 150.825 182.141 151.094 181.513 150.795Z" fill="white"/>
<path d="M218.798 150.497L209.477 139.443L220.501 148.734C221.009 149.182 221.099 149.959 220.651 150.467C220.202 150.975 219.426 151.064 218.918 150.616C218.888 150.586 218.828 150.526 218.798 150.497Z" fill="white"/>
<path d="M214.735 150.795C215.363 150.497 215.602 149.78 215.303 149.152C215.273 149.092 215.243 149.033 215.183 148.973L206.878 137.172L213.092 150.198C213.391 150.825 214.108 151.094 214.735 150.795Z" fill="white"/>
<path d="M220.83 144.701C220.531 145.328 219.814 145.567 219.187 145.268C219.127 145.238 219.067 145.209 219.007 145.149L207.206 136.843L220.232 143.057C220.86 143.356 221.129 144.073 220.83 144.701Z" fill="white"/>
<path d="M177.45 105.683L186.771 116.737L175.717 107.416C175.209 106.967 175.12 106.191 175.568 105.683C176.016 105.175 176.793 105.085 177.301 105.533C177.36 105.593 177.42 105.653 177.45 105.683Z" fill="white"/>
<path d="M181.513 105.384C180.886 105.683 180.647 106.4 180.946 107.027C180.975 107.087 181.005 107.147 181.065 107.206L189.371 119.007L183.156 105.952C182.858 105.354 182.141 105.085 181.513 105.384Z" fill="white"/>
<path d="M175.418 111.479C175.717 110.851 176.434 110.612 177.062 110.911C177.121 110.941 177.181 110.971 177.241 111.031L189.042 119.336L175.986 113.122C175.389 112.823 175.12 112.106 175.418 111.479Z" fill="white"/>
</g>
<g opacity="0.5" clip-path="url(#clip4)">
<path d="M126.07 74.0867C121.145 74.2942 119.503 78.2756 119.503 80.9172C119.503 83.5589 121.145 87.5403 126.07 87.7478C131.183 87.9554 136.278 83.0117 136.278 83.0117C134.731 82.3513 133.674 81.5588 132.882 80.9172C133.655 80.2757 134.731 79.4832 136.278 78.8228C136.278 78.8228 131.183 73.8791 126.07 74.0867ZM133.938 83.2381C132.146 84.5023 127.485 88.4082 123.089 85.4647C123.919 85.7288 125.126 85.7854 125.938 85.559C127.825 85.0495 130.825 82.6532 131.919 81.7286C132.391 82.1249 133.146 82.7287 133.938 83.2381ZM123.258 84.1816C121.956 83.691 121.126 82.1815 121.126 80.9172C121.126 79.653 121.956 78.1435 123.258 77.6529C126.07 76.6151 129.24 79.5209 130.938 80.9172C129.24 82.3135 126.07 85.2194 123.258 84.1816ZM133.938 78.5964C133.146 79.1058 132.391 79.7096 131.919 80.087C130.825 79.1813 127.825 76.7849 125.938 76.2755C125.126 76.0491 123.919 76.1057 123.089 76.3698C127.485 73.4263 132.146 77.3321 133.938 78.5964Z" fill="white"/>
<path d="M150.675 87.7478C155.6 87.5403 157.241 83.5589 157.241 80.9172C157.241 78.2756 155.6 74.2942 150.675 74.0867C145.562 73.8791 140.467 78.8228 140.467 78.8228C142.014 79.4832 143.071 80.2757 143.863 80.9172C143.09 81.5588 142.014 82.3513 140.467 83.0117C140.467 83.0117 145.562 87.9554 150.675 87.7478ZM142.807 78.5964C144.599 77.3321 149.26 73.4263 153.656 76.3698C152.826 76.1057 151.618 76.0491 150.807 76.2755C148.92 76.7849 145.92 79.1813 144.826 80.1059C144.354 79.7096 143.599 79.1058 142.807 78.5964ZM153.486 77.6529C154.788 78.1246 155.619 79.653 155.619 80.9172C155.619 82.1815 154.788 83.691 153.486 84.1816C150.675 85.2194 147.505 82.3135 145.807 80.9172C147.505 79.5209 150.675 76.6151 153.486 77.6529ZM142.807 83.2381C143.599 82.7287 144.354 82.1249 144.826 81.7475C145.92 82.6532 148.92 85.0495 150.807 85.5779C151.618 85.8043 152.826 85.7477 153.656 85.4835C149.26 88.4082 144.599 84.5023 142.807 83.2381Z" fill="white"/>
<path d="M145.203 68.6147C144.995 63.6899 141.014 62.0483 138.372 62.0483C135.731 62.0483 131.749 63.6899 131.542 68.6147C131.334 73.7282 136.278 78.8228 136.278 78.8228C136.938 77.2755 137.731 76.2189 138.372 75.4264C139.014 76.2 139.806 77.2755 140.467 78.8228C140.467 78.8228 145.411 73.7282 145.203 68.6147ZM136.052 76.483C134.787 74.6905 130.881 70.0299 133.825 65.6334C133.561 66.4636 133.504 67.6712 133.731 68.4826C134.24 70.3695 136.636 73.3697 137.561 74.4641C137.165 74.9358 136.561 75.6905 136.052 76.483ZM135.108 65.8032C135.599 64.5012 137.108 63.671 138.372 63.671C139.637 63.671 141.146 64.5012 141.637 65.8032C142.675 68.6147 139.769 71.7847 138.372 73.4829C136.976 71.7847 134.07 68.6147 135.108 65.8032ZM140.693 76.483C140.184 75.6905 139.58 74.9358 139.203 74.4641C140.108 73.3697 142.505 70.3695 143.033 68.4826C143.259 67.6712 143.203 66.4636 142.939 65.6334C145.863 70.0299 141.958 74.6905 140.693 76.483Z" fill="white"/>
<path d="M131.542 93.2198C131.749 98.1446 135.731 99.7862 138.372 99.7862C141.014 99.7862 144.995 98.1446 145.203 93.2198C145.411 88.1063 140.467 83.0117 140.467 83.0117C139.806 84.559 139.014 85.6156 138.372 86.4081C137.731 85.6345 136.938 84.559 136.278 83.0117C136.278 83.0117 131.334 88.1063 131.542 93.2198ZM140.693 85.3515C141.958 87.144 145.882 91.7858 142.92 96.1822C143.184 95.352 143.241 94.1444 143.014 93.333C142.505 91.4461 140.108 88.446 139.184 87.3516C139.58 86.8987 140.184 86.144 140.693 85.3515ZM141.637 96.0313C141.165 97.3332 139.637 98.1635 138.372 98.1635C137.108 98.1635 135.599 97.3332 135.108 96.0313C134.07 93.2198 136.976 90.0498 138.372 88.3516C139.769 90.0498 142.675 93.2198 141.637 96.0313ZM136.052 85.3515C136.561 86.144 137.165 86.8987 137.542 87.3704C136.636 88.4648 134.24 91.465 133.712 93.3519C133.485 94.1633 133.542 95.3709 133.806 96.2011C130.881 91.8046 134.787 87.144 136.052 85.3515Z" fill="white"/>
<path d="M152.524 67.8599L145.543 73.747L151.43 66.7655C151.713 66.4448 152.203 66.3881 152.524 66.6712C152.845 66.9542 152.902 67.4448 152.618 67.7656C152.581 67.8033 152.543 67.8411 152.524 67.8599Z" fill="white"/>
<path d="M152.713 70.4261C152.524 70.0298 152.071 69.8789 151.675 70.0676C151.637 70.0865 151.6 70.1053 151.562 70.1431L144.109 75.3886L152.335 71.4639C152.732 71.2752 152.902 70.8223 152.713 70.4261Z" fill="white"/>
<path d="M148.864 66.578C149.26 66.7667 149.411 67.2196 149.222 67.6158C149.203 67.6536 149.184 67.6913 149.147 67.7291L143.901 75.1823L147.826 66.9554C148.014 66.5592 148.467 66.3894 148.864 66.578Z" fill="white"/>
<path d="M124.221 93.9746L131.202 88.0875L125.315 95.069C125.032 95.3898 124.541 95.4464 124.221 95.1633C123.9 94.8803 123.843 94.3897 124.126 94.0689C124.164 94.0312 124.202 93.9935 124.221 93.9746Z" fill="white"/>
<path d="M124.033 91.4084C124.222 91.8046 124.675 91.9556 125.071 91.7669C125.109 91.748 125.146 91.7292 125.184 91.6914L132.637 86.4459L124.411 90.3706C124.014 90.5593 123.845 91.0122 124.033 91.4084Z" fill="white"/>
<path d="M127.881 95.2577C127.485 95.069 127.334 94.6161 127.523 94.2199C127.542 94.1821 127.56 94.1444 127.598 94.1067L132.844 86.6534L128.919 94.8803C128.73 95.2765 128.278 95.4463 127.881 95.2577Z" fill="white"/>
<path d="M151.43 95.069L145.543 88.0875L152.505 93.9557C152.826 94.2387 152.883 94.7293 152.6 95.0501C152.317 95.3709 151.826 95.4275 151.505 95.1445C151.486 95.1256 151.449 95.0878 151.43 95.069Z" fill="white"/>
<path d="M148.864 95.2577C149.26 95.069 149.411 94.6161 149.222 94.2199C149.203 94.1821 149.184 94.1444 149.147 94.1067L143.901 86.6534L147.826 94.8803C148.014 95.2765 148.467 95.4463 148.864 95.2577Z" fill="white"/>
<path d="M152.713 91.4084C152.524 91.8046 152.071 91.9556 151.675 91.7669C151.637 91.748 151.6 91.7292 151.562 91.6914L144.109 86.4459L152.335 90.3706C152.732 90.5593 152.902 91.0122 152.713 91.4084Z" fill="white"/>
<path d="M125.315 66.7655L131.202 73.747L124.221 67.8599C123.9 67.5769 123.843 67.0863 124.126 66.7655C124.409 66.4448 124.9 66.3881 125.221 66.6712C125.258 66.7089 125.296 66.7467 125.315 66.7655Z" fill="white"/>
<path d="M127.881 66.5768C127.485 66.7655 127.334 67.2184 127.523 67.6146C127.542 67.6524 127.56 67.6901 127.598 67.7278L132.844 75.1811L128.919 66.9353C128.73 66.558 128.278 66.3881 127.881 66.5768Z" fill="white"/>
<path d="M124.032 70.4261C124.221 70.0298 124.674 69.8789 125.07 70.0676C125.108 70.0865 125.145 70.1053 125.183 70.1431L132.636 75.3886L124.39 71.4639C124.013 71.2752 123.843 70.8223 124.032 70.4261Z" fill="white"/>
</g>
<g opacity="0.5" clip-path="url(#clip5)">
<path d="M6.5664 74.0867C1.6416 74.2942 0 78.2756 0 80.9172C0 83.5589 1.6416 87.5403 6.5664 87.7478C11.6799 87.9554 16.7745 83.0117 16.7745 83.0117C15.2273 82.3513 14.1706 81.5588 13.3781 80.9172C14.1517 80.2757 15.2273 79.4832 16.7745 78.8228C16.7745 78.8228 11.6799 73.8791 6.5664 74.0867ZM14.4348 83.2381C12.6422 84.5023 7.98157 88.4082 3.5851 85.4647C4.41534 85.7288 5.62295 85.7854 6.43432 85.559C8.32121 85.0495 11.3214 82.6532 12.4158 81.7286C12.8875 82.1249 13.6423 82.7287 14.4348 83.2381ZM3.75492 84.1816C2.45297 83.691 1.62273 82.1815 1.62273 80.9172C1.62273 79.653 2.45297 78.1435 3.75492 77.6529C6.5664 76.6151 9.73639 79.5209 11.4346 80.9172C9.73639 82.3135 6.5664 85.2194 3.75492 84.1816ZM14.4348 78.5964C13.6423 79.1058 12.8875 79.7096 12.4158 80.087C11.3214 79.1813 8.32121 76.7849 6.43432 76.2755C5.62295 76.0491 4.41534 76.1057 3.5851 76.3698C7.98157 73.4263 12.6422 77.3321 14.4348 78.5964Z" fill="white"/>
<path d="M31.1716 87.7478C36.0964 87.5403 37.738 83.5589 37.738 80.9172C37.738 78.2756 36.0964 74.2942 31.1716 74.0867C26.0581 73.8791 20.9634 78.8228 20.9634 78.8228C22.5107 79.4832 23.5674 80.2757 24.3599 80.9172C23.5862 81.5588 22.5107 82.3513 20.9634 83.0117C20.9634 83.0117 26.0581 87.9554 31.1716 87.7478ZM23.3032 78.5964C25.0957 77.3321 29.7564 73.4263 34.1528 76.3698C33.3226 76.1057 32.115 76.0491 31.3036 76.2755C29.4167 76.7849 26.4166 79.1813 25.3222 80.1059C24.8504 79.7096 24.0957 79.1058 23.3032 78.5964ZM33.983 77.6529C35.285 78.1246 36.1152 79.653 36.1152 80.9172C36.1152 82.1815 35.285 83.691 33.983 84.1816C31.1716 85.2194 28.0016 82.3135 26.3034 80.9172C28.0016 79.5209 31.1716 76.6151 33.983 77.6529ZM23.3032 83.2381C24.0957 82.7287 24.8504 82.1249 25.3222 81.7475C26.4166 82.6532 29.4167 85.0495 31.3036 85.5779C32.115 85.8043 33.3226 85.7477 34.1528 85.4835C29.7564 88.4082 25.0957 84.5023 23.3032 83.2381Z" fill="white"/>
<path d="M25.6995 68.6147C25.492 63.6899 21.5106 62.0483 18.869 62.0483C16.2273 62.0483 12.246 63.6899 12.0384 68.6147C11.8308 73.7282 16.7745 78.8228 16.7745 78.8228C17.4349 77.2755 18.2274 76.2189 18.869 75.4264C19.5105 76.2 20.303 77.2755 20.9634 78.8228C20.9634 78.8228 25.9071 73.7282 25.6995 68.6147ZM16.5481 76.483C15.2839 74.6905 11.378 70.0299 14.3215 65.6334C14.0574 66.4636 14.0008 67.6712 14.2272 68.4826C14.7367 70.3695 17.133 73.3697 18.0576 74.4641C17.6614 74.9358 17.0575 75.6905 16.5481 76.483ZM15.6046 65.8032C16.0952 64.5012 17.6047 63.671 18.869 63.671C20.1332 63.671 21.6427 64.5012 22.1333 65.8032C23.1711 68.6147 20.2653 71.7847 18.869 73.4829C17.4727 71.7847 14.5668 68.6147 15.6046 65.8032ZM21.1899 76.483C20.6804 75.6905 20.0766 74.9358 19.6992 74.4641C20.6049 73.3697 23.0013 70.3695 23.5296 68.4826C23.756 67.6712 23.6994 66.4636 23.4353 65.6334C26.36 70.0299 22.4541 74.6905 21.1899 76.483Z" fill="white"/>
<path d="M12.0384 93.2198C12.246 98.1446 16.2273 99.7862 18.869 99.7862C21.5106 99.7862 25.492 98.1446 25.6995 93.2198C25.9071 88.1063 20.9634 83.0117 20.9634 83.0117C20.303 84.559 19.5105 85.6156 18.869 86.4081C18.2274 85.6345 17.4349 84.559 16.7745 83.0117C16.7745 83.0117 11.8308 88.1063 12.0384 93.2198ZM21.1899 85.3515C22.4541 87.144 26.3788 91.7858 23.4164 96.1822C23.6806 95.352 23.7372 94.1444 23.5107 93.333C23.0013 91.4461 20.6049 88.446 19.6803 87.3516C20.0766 86.8987 20.6804 86.144 21.1899 85.3515ZM22.1333 96.0313C21.6616 97.3332 20.1332 98.1635 18.869 98.1635C17.6047 98.1635 16.0952 97.3332 15.6046 96.0313C14.5668 93.2198 17.4727 90.0498 18.869 88.3516C20.2653 90.0498 23.1711 93.2198 22.1333 96.0313ZM16.5481 85.3515C17.0575 86.144 17.6614 86.8987 18.0387 87.3704C17.133 88.4648 14.7367 91.465 14.2083 93.3519C13.9819 94.1633 14.0385 95.3709 14.3027 96.2011C11.378 91.8046 15.2839 87.144 16.5481 85.3515Z" fill="white"/>
<path d="M33.0207 67.8599L26.0392 73.747L31.9263 66.7655C32.2093 66.4448 32.6999 66.3881 33.0207 66.6712C33.3415 66.9542 33.3981 67.4448 33.115 67.7656C33.0773 67.8033 33.0396 67.8411 33.0207 67.8599Z" fill="white"/>
<path d="M33.2094 70.4261C33.0207 70.0298 32.5678 69.8789 32.1716 70.0676C32.1338 70.0865 32.0961 70.1053 32.0583 70.1431L24.6051 75.3886L32.832 71.4639C33.2282 71.2752 33.398 70.8223 33.2094 70.4261Z" fill="white"/>
<path d="M29.3601 66.578C29.7564 66.7667 29.9073 67.2196 29.7186 67.6158C29.6998 67.6536 29.6809 67.6913 29.6432 67.7291L24.3976 75.1823L28.3223 66.9554C28.511 66.5592 28.9639 66.3894 29.3601 66.578Z" fill="white"/>
<path d="M4.71724 93.9746L11.6988 88.0875L5.81164 95.069C5.52861 95.3898 5.03802 95.4464 4.71724 95.1633C4.39647 94.8803 4.33986 94.3897 4.6229 94.0689C4.66064 94.0312 4.69838 93.9935 4.71724 93.9746Z" fill="white"/>
<path d="M4.52978 91.4084C4.71847 91.8046 5.17133 91.9556 5.56758 91.7669C5.60531 91.748 5.64305 91.7292 5.68079 91.6914L13.134 86.4459L4.90716 90.3706C4.51091 90.5593 4.34109 91.0122 4.52978 91.4084Z" fill="white"/>
<path d="M8.37782 95.2577C7.98157 95.069 7.83062 94.6161 8.01931 94.2199C8.03818 94.1821 8.05705 94.1444 8.09478 94.1067L13.3404 86.6534L9.41561 94.8803C9.22692 95.2765 8.77407 95.4463 8.37782 95.2577Z" fill="white"/>
<path d="M31.9263 95.069L26.0392 88.0875L33.0018 93.9557C33.3226 94.2387 33.3792 94.7293 33.0962 95.0501C32.8131 95.3709 32.3226 95.4275 32.0018 95.1445C31.9829 95.1256 31.9452 95.0878 31.9263 95.069Z" fill="white"/>
<path d="M29.3601 95.2577C29.7564 95.069 29.9073 94.6161 29.7186 94.2199C29.6998 94.1821 29.6809 94.1444 29.6432 94.1067L24.3976 86.6534L28.3223 94.8803C28.511 95.2765 28.9639 95.4463 29.3601 95.2577Z" fill="white"/>
<path d="M33.2094 91.4084C33.0207 91.8046 32.5678 91.9556 32.1716 91.7669C32.1338 91.748 32.0961 91.7292 32.0583 91.6914L24.6051 86.4459L32.832 90.3706C33.2282 90.5593 33.398 91.0122 33.2094 91.4084Z" fill="white"/>
<path d="M5.81164 66.7655L11.6988 73.747L4.71724 67.8599C4.39647 67.5769 4.33986 67.0863 4.6229 66.7655C4.90593 66.4448 5.39653 66.3881 5.7173 66.6712C5.75504 66.7089 5.79278 66.7467 5.81164 66.7655Z" fill="white"/>
<path d="M8.37782 66.5768C7.98157 66.7655 7.83062 67.2184 8.01931 67.6146C8.03818 67.6524 8.05705 67.6901 8.09478 67.7278L13.3404 75.1811L9.41561 66.9353C9.22692 66.558 8.77407 66.3881 8.37782 66.5768Z" fill="white"/>
<path d="M4.52854 70.4261C4.71723 70.0298 5.17009 69.8789 5.56633 70.0676C5.60407 70.0865 5.64181 70.1053 5.67955 70.1431L13.1328 75.3886L4.88705 71.4639C4.50967 71.2752 4.33985 70.8223 4.52854 70.4261Z" fill="white"/>
</g>
<g opacity="0.5" clip-path="url(#clip6)">
<path d="M130.787 171.576C125.862 171.784 124.221 175.765 124.221 178.407C124.221 181.049 125.862 185.03 130.787 185.237C135.901 185.445 140.995 180.501 140.995 180.501C139.448 179.841 138.391 179.048 137.599 178.407C138.372 177.765 139.448 176.973 140.995 176.312C140.995 176.312 135.901 171.369 130.787 171.576ZM138.655 180.728C136.863 181.992 132.202 185.898 127.806 182.954C128.636 183.218 129.844 183.275 130.655 183.049C132.542 182.539 135.542 180.143 136.636 179.218C137.108 179.615 137.863 180.218 138.655 180.728ZM127.976 181.671C126.674 181.181 125.843 179.671 125.843 178.407C125.843 177.143 126.674 175.633 127.976 175.143C130.787 174.105 133.957 177.011 135.655 178.407C133.957 179.803 130.787 182.709 127.976 181.671ZM138.655 176.086C137.863 176.595 137.108 177.199 136.636 177.577C135.542 176.671 132.542 174.275 130.655 173.765C129.844 173.539 128.636 173.595 127.806 173.859C132.202 170.916 136.863 174.822 138.655 176.086Z" fill="white"/>
<path d="M155.392 185.237C160.317 185.03 161.959 181.049 161.959 178.407C161.959 175.765 160.317 171.784 155.392 171.576C150.279 171.369 145.184 176.312 145.184 176.312C146.731 176.973 147.788 177.765 148.581 178.407C147.807 179.048 146.731 179.841 145.184 180.501C145.184 180.501 150.279 185.445 155.392 185.237ZM147.524 176.086C149.316 174.822 153.977 170.916 158.374 173.859C157.543 173.595 156.336 173.539 155.524 173.765C153.637 174.275 150.637 176.671 149.543 177.596C149.071 177.199 148.316 176.595 147.524 176.086ZM158.204 175.143C159.506 175.614 160.336 177.143 160.336 178.407C160.336 179.671 159.506 181.181 158.204 181.671C155.392 182.709 152.222 179.803 150.524 178.407C152.222 177.011 155.392 174.105 158.204 175.143ZM147.524 180.728C148.316 180.218 149.071 179.615 149.543 179.237C150.637 180.143 153.637 182.539 155.524 183.068C156.336 183.294 157.543 183.237 158.374 182.973C153.977 185.898 149.316 181.992 147.524 180.728Z" fill="white"/>
<path d="M149.92 166.104C149.713 161.18 145.731 159.538 143.09 159.538C140.448 159.538 136.467 161.18 136.259 166.104C136.052 171.218 140.995 176.312 140.995 176.312C141.656 174.765 142.448 173.709 143.09 172.916C143.731 173.69 144.524 174.765 145.184 176.312C145.184 176.312 150.128 171.218 149.92 166.104ZM140.769 173.973C139.505 172.18 135.599 167.52 138.542 163.123C138.278 163.953 138.221 165.161 138.448 165.972C138.957 167.859 141.354 170.859 142.278 171.954C141.882 172.425 141.278 173.18 140.769 173.973ZM139.825 163.293C140.316 161.991 141.825 161.161 143.09 161.161C144.354 161.161 145.863 161.991 146.354 163.293C147.392 166.104 144.486 169.274 143.09 170.973C141.693 169.274 138.788 166.104 139.825 163.293ZM145.411 173.973C144.901 173.18 144.297 172.425 143.92 171.954C144.826 170.859 147.222 167.859 147.75 165.972C147.977 165.161 147.92 163.953 147.656 163.123C150.581 167.52 146.675 172.18 145.411 173.973Z" fill="white"/>
<path d="M136.259 190.709C136.467 195.634 140.448 197.276 143.09 197.276C145.731 197.276 149.713 195.634 149.92 190.709C150.128 185.596 145.184 180.501 145.184 180.501C144.524 182.049 143.731 183.105 143.09 183.898C142.448 183.124 141.656 182.049 140.995 180.501C140.995 180.501 136.052 185.596 136.259 190.709ZM145.411 182.841C146.675 184.634 150.6 189.275 147.637 193.672C147.901 192.842 147.958 191.634 147.731 190.823C147.222 188.936 144.826 185.936 143.901 184.841C144.297 184.388 144.901 183.634 145.411 182.841ZM146.354 193.521C145.882 194.823 144.354 195.653 143.09 195.653C141.825 195.653 140.316 194.823 139.825 193.521C138.788 190.709 141.693 187.539 143.09 185.841C144.486 187.539 147.392 190.709 146.354 193.521ZM140.769 182.841C141.278 183.634 141.882 184.388 142.259 184.86C141.354 185.954 138.957 188.955 138.429 190.842C138.203 191.653 138.259 192.861 138.523 193.691C135.599 189.294 139.505 184.634 140.769 182.841Z" fill="white"/>
<path d="M157.241 165.35L150.26 171.237L156.147 164.255C156.43 163.934 156.921 163.878 157.241 164.161C157.562 164.444 157.619 164.934 157.336 165.255C157.298 165.293 157.26 165.331 157.241 165.35Z" fill="white"/>
<path d="M157.43 167.916C157.241 167.52 156.789 167.369 156.392 167.557C156.355 167.576 156.317 167.595 156.279 167.633L148.826 172.878L157.053 168.954C157.449 168.765 157.619 168.312 157.43 167.916Z" fill="white"/>
<path d="M153.581 164.068C153.977 164.256 154.128 164.709 153.939 165.105C153.92 165.143 153.902 165.181 153.864 165.219L148.618 172.672L152.543 164.445C152.732 164.049 153.185 163.879 153.581 164.068Z" fill="white"/>
<path d="M128.938 191.464L135.919 185.577L130.032 192.559C129.749 192.879 129.259 192.936 128.938 192.653C128.617 192.37 128.561 191.879 128.844 191.559C128.881 191.521 128.919 191.483 128.938 191.464Z" fill="white"/>
<path d="M128.75 188.898C128.939 189.294 129.392 189.445 129.788 189.257C129.826 189.238 129.864 189.219 129.901 189.181L137.355 183.936L129.128 187.86C128.732 188.049 128.562 188.502 128.75 188.898Z" fill="white"/>
<path d="M132.599 192.747C132.202 192.559 132.051 192.106 132.24 191.71C132.259 191.672 132.278 191.634 132.315 191.596L137.561 184.143L133.636 192.37C133.448 192.766 132.995 192.936 132.599 192.747Z" fill="white"/>
<path d="M156.147 192.559L150.26 185.577L157.223 191.445C157.543 191.728 157.6 192.219 157.317 192.54C157.034 192.861 156.543 192.917 156.222 192.634C156.204 192.615 156.166 192.578 156.147 192.559Z" fill="white"/>
<path d="M153.581 192.747C153.977 192.559 154.128 192.106 153.939 191.71C153.92 191.672 153.902 191.634 153.864 191.596L148.618 184.143L152.543 192.37C152.732 192.766 153.185 192.936 153.581 192.747Z" fill="white"/>
<path d="M157.43 188.898C157.241 189.294 156.789 189.445 156.392 189.257C156.355 189.238 156.317 189.219 156.279 189.181L148.826 183.936L157.053 187.86C157.449 188.049 157.619 188.502 157.43 188.898Z" fill="white"/>
<path d="M130.032 164.255L135.919 171.237L128.938 165.35C128.617 165.067 128.561 164.576 128.844 164.255C129.127 163.934 129.617 163.878 129.938 164.161C129.976 164.199 130.013 164.236 130.032 164.255Z" fill="white"/>
<path d="M132.599 164.066C132.202 164.255 132.051 164.708 132.24 165.104C132.259 165.142 132.278 165.18 132.315 165.217L137.561 172.671L133.636 164.425C133.448 164.048 132.995 163.878 132.599 164.066Z" fill="white"/>
<path d="M128.749 167.916C128.938 167.52 129.391 167.369 129.787 167.557C129.825 167.576 129.863 167.595 129.9 167.633L137.353 172.878L129.108 168.954C128.73 168.765 128.561 168.312 128.749 167.916Z" fill="white"/>
</g>
<g opacity="0.5" clip-path="url(#clip7)">
<path d="M11.2836 171.576C6.35882 171.784 4.71722 175.765 4.71722 178.407C4.71722 181.049 6.35882 185.03 11.2836 185.237C16.3971 185.445 21.4917 180.501 21.4917 180.501C19.9445 179.841 18.8878 179.048 18.0953 178.407C18.8689 177.765 19.9445 176.973 21.4917 176.312C21.4917 176.312 16.3971 171.369 11.2836 171.576ZM19.152 180.728C17.3594 181.992 12.6988 185.898 8.30233 182.954C9.13256 183.218 10.3402 183.275 11.1515 183.049C13.0384 182.539 16.0386 180.143 17.133 179.218C17.6047 179.615 18.3595 180.218 19.152 180.728ZM8.47215 181.671C7.17019 181.181 6.33996 179.671 6.33996 178.407C6.33996 177.143 7.17019 175.633 8.47215 175.143C11.2836 174.105 14.4536 177.011 16.1518 178.407C14.4536 179.803 11.2836 182.709 8.47215 181.671ZM19.152 176.086C18.3595 176.595 17.6047 177.199 17.133 177.577C16.0386 176.671 13.0384 174.275 11.1515 173.765C10.3402 173.539 9.13256 173.595 8.30233 173.859C12.6988 170.916 17.3594 174.822 19.152 176.086Z" fill="white"/>
<path d="M35.8888 185.237C40.8136 185.03 42.4552 181.049 42.4552 178.407C42.4552 175.765 40.8136 171.784 35.8888 171.576C30.7753 171.369 25.6807 176.312 25.6807 176.312C27.2279 176.973 28.2846 177.765 29.0771 178.407C28.3035 179.048 27.2279 179.841 25.6807 180.501C25.6807 180.501 30.7753 185.445 35.8888 185.237ZM28.0204 176.086C29.813 174.822 34.4736 170.916 38.8701 173.859C38.0398 173.595 36.8322 173.539 36.0209 173.765C34.134 174.275 31.1338 176.671 30.0394 177.596C29.5677 177.199 28.8129 176.595 28.0204 176.086ZM38.7003 175.143C40.0022 175.614 40.8324 177.143 40.8324 178.407C40.8324 179.671 40.0022 181.181 38.7003 181.671C35.8888 182.709 32.7188 179.803 31.0206 178.407C32.7188 177.011 35.8888 174.105 38.7003 175.143ZM28.0204 180.728C28.8129 180.218 29.5677 179.615 30.0394 179.237C31.1338 180.143 34.134 182.539 36.0209 183.068C36.8322 183.294 38.0398 183.237 38.8701 182.973C34.4736 185.898 29.813 181.992 28.0204 180.728Z" fill="white"/>
<path d="M30.4168 166.104C30.2092 161.18 26.2278 159.538 23.5862 159.538C20.9445 159.538 16.9632 161.18 16.7556 166.104C16.5481 171.218 21.4917 176.312 21.4917 176.312C22.1522 174.765 22.9446 173.709 23.5862 172.916C24.2277 173.69 25.0202 174.765 25.6806 176.312C25.6806 176.312 30.6243 171.218 30.4168 166.104ZM21.2653 173.973C20.0011 172.18 16.0952 167.52 19.0388 163.123C18.7746 163.953 18.718 165.161 18.9444 165.972C19.4539 167.859 21.8502 170.859 22.7748 171.954C22.3786 172.425 21.7748 173.18 21.2653 173.973ZM20.3219 163.293C20.8125 161.991 22.322 161.161 23.5862 161.161C24.8504 161.161 26.3599 161.991 26.8505 163.293C27.8883 166.104 24.9825 169.274 23.5862 170.973C22.1899 169.274 19.2841 166.104 20.3219 163.293ZM25.9071 173.973C25.3976 173.18 24.7938 172.425 24.4164 171.954C25.3221 170.859 27.7185 167.859 28.2468 165.972C28.4733 165.161 28.4167 163.953 28.1525 163.123C31.0772 167.52 27.1713 172.18 25.9071 173.973Z" fill="white"/>
<path d="M16.7556 190.709C16.9632 195.634 20.9445 197.276 23.5862 197.276C26.2278 197.276 30.2092 195.634 30.4168 190.709C30.6243 185.596 25.6806 180.501 25.6806 180.501C25.0202 182.049 24.2277 183.105 23.5862 183.898C22.9446 183.124 22.1522 182.049 21.4917 180.501C21.4917 180.501 16.5481 185.596 16.7556 190.709ZM25.9071 182.841C27.1713 184.634 31.096 189.275 28.1336 193.672C28.3978 192.842 28.4544 191.634 28.228 190.823C27.7185 188.936 25.3221 185.936 24.3976 184.841C24.7938 184.388 25.3976 183.634 25.9071 182.841ZM26.8505 193.521C26.3788 194.823 24.8504 195.653 23.5862 195.653C22.322 195.653 20.8125 194.823 20.3219 193.521C19.2841 190.709 22.1899 187.539 23.5862 185.841C24.9825 187.539 27.8883 190.709 26.8505 193.521ZM21.2653 182.841C21.7748 183.634 22.3786 184.388 22.756 184.86C21.8502 185.954 19.4539 188.955 18.9256 190.842C18.6991 191.653 18.7557 192.861 19.0199 193.691C16.0952 189.294 20.0011 184.634 21.2653 182.841Z" fill="white"/>
<path d="M37.7379 165.35L30.7564 171.237L36.6435 164.255C36.9266 163.934 37.4172 163.878 37.7379 164.161C38.0587 164.444 38.1153 164.934 37.8323 165.255C37.7945 165.293 37.7568 165.331 37.7379 165.35Z" fill="white"/>
<path d="M37.9266 167.916C37.7379 167.52 37.285 167.369 36.8888 167.557C36.851 167.576 36.8133 167.595 36.7756 167.633L29.3223 172.878L37.5492 168.954C37.9454 168.765 38.1153 168.312 37.9266 167.916Z" fill="white"/>
<path d="M34.0773 164.068C34.4736 164.256 34.6245 164.709 34.4359 165.105C34.417 165.143 34.3981 165.181 34.3604 165.219L29.1148 172.672L33.0396 164.445C33.2282 164.049 33.6811 163.879 34.0773 164.068Z" fill="white"/>
<path d="M9.43447 191.464L16.416 185.577L10.5289 192.559C10.2458 192.879 9.75524 192.936 9.43447 192.653C9.1137 192.37 9.05709 191.879 9.34012 191.559C9.37786 191.521 9.4156 191.483 9.43447 191.464Z" fill="white"/>
<path d="M9.24701 188.898C9.4357 189.294 9.88855 189.445 10.2848 189.257C10.3225 189.238 10.3603 189.219 10.398 189.181L17.8513 183.936L9.62439 187.86C9.22814 188.049 9.05832 188.502 9.24701 188.898Z" fill="white"/>
<path d="M13.095 192.747C12.6988 192.559 12.5478 192.106 12.7365 191.71C12.7554 191.672 12.7743 191.634 12.812 191.596L18.0576 184.143L14.1328 192.37C13.9441 192.766 13.4913 192.936 13.095 192.747Z" fill="white"/>
<path d="M36.6435 192.559L30.7564 185.577L37.7191 191.445C38.0398 191.728 38.0964 192.219 37.8134 192.54C37.5304 192.861 37.0398 192.917 36.719 192.634C36.7001 192.615 36.6624 192.578 36.6435 192.559Z" fill="white"/>
<path d="M34.0773 192.747C34.4736 192.559 34.6245 192.106 34.4359 191.71C34.417 191.672 34.3981 191.634 34.3604 191.596L29.1148 184.143L33.0396 192.37C33.2282 192.766 33.6811 192.936 34.0773 192.747Z" fill="white"/>
<path d="M37.9266 188.898C37.7379 189.294 37.285 189.445 36.8888 189.257C36.851 189.238 36.8133 189.219 36.7756 189.181L29.3223 183.936L37.5492 187.86C37.9454 188.049 38.1153 188.502 37.9266 188.898Z" fill="white"/>
<path d="M10.5289 164.255L16.416 171.237L9.43447 165.35C9.1137 165.067 9.05709 164.576 9.34012 164.255C9.62316 163.934 10.1138 163.878 10.4345 164.161C10.4723 164.199 10.51 164.236 10.5289 164.255Z" fill="white"/>
<path d="M13.095 164.066C12.6988 164.255 12.5478 164.708 12.7365 165.104C12.7554 165.142 12.7743 165.18 12.812 165.217L18.0576 172.671L14.1328 164.425C13.9441 164.048 13.4913 163.878 13.095 164.066Z" fill="white"/>
<path d="M9.24577 167.916C9.43445 167.52 9.88731 167.369 10.2836 167.557C10.3213 167.576 10.359 167.595 10.3968 167.633L17.85 172.878L9.60428 168.954C9.2269 168.765 9.05708 168.312 9.24577 167.916Z" fill="white"/>
</g>
</g>
<defs>
<clipPath id="clip0">
<rect width="59.7517" height="59.7517" fill="white" transform="translate(48.7448 0.724136)"/>
</clipPath>
<clipPath id="clip1">
<rect width="59.7517" height="59.7517" fill="white" transform="translate(48.7448 98.2138)"/>
</clipPath>
<clipPath id="clip2">
<rect width="59.7517" height="59.7517" fill="white" transform="translate(168.248 0.724136)"/>
</clipPath>
<clipPath id="clip3">
<rect width="59.7517" height="59.7517" fill="white" transform="translate(168.248 98.2138)"/>
</clipPath>
<clipPath id="clip4">
<rect width="37.7379" height="37.7379" fill="white" transform="translate(119.503 62.0483)"/>
</clipPath>
<clipPath id="clip5">
<rect width="37.7379" height="37.7379" fill="white" transform="translate(0 62.0483)"/>
</clipPath>
<clipPath id="clip6">
<rect width="37.7379" height="37.7379" fill="white" transform="translate(124.221 159.538)"/>
</clipPath>
<clipPath id="clip7">
<rect width="37.7379" height="37.7379" fill="white" transform="translate(4.71722 159.538)"/>
</clipPath>
</defs>
</svg>
